<svg width="36" height="37" viewBox="0 0 36 37" fill="none" xmlns="http://www.w3.org/2000/svg">
<rect y="0.639648" width="36" height="36" rx="8" fill="#1B3D71"/>
<path d="M25.9438 18.6396C25.9438 22.5146 23.1 25.7334 19.3813 26.2959V20.8896H21.1938L21.5375 18.6396H19.3813V17.2021C19.3813 16.5771 19.6938 15.9834 20.6625 15.9834H21.6313V14.0771C21.6313 14.0771 20.7563 13.9209 19.8813 13.9209C18.1313 13.9209 16.975 15.0146 16.975 16.9521V18.6396H15.0063V20.8896H16.975V26.2959C13.2563 25.7334 10.4438 22.5146 10.4438 18.6396C10.4438 14.3584 13.9125 10.8896 18.1938 10.8896C22.475 10.8896 25.9438 14.3584 25.9438 18.6396Z" fill="#FAFAFA"/>
<path d="M10.1938 26.2021H26.1938V26.9834H10.1938V26.2021Z" fill="#FAFAFA"/>
</svg>
