<svg width="36" height="37" viewBox="0 0 36 37" fill="none" xmlns="http://www.w3.org/2000/svg">
<rect y="0.639648" width="36" height="36" rx="8" fill="#1B3D71"/>
<path d="M25.0498 11.5497C24.1329 10.6238 23.0408 9.88967 21.8373 9.39006C20.6338 8.89046 19.3429 8.63539 18.0398 8.6397C12.5798 8.6397 8.1298 13.0897 8.1298 18.5497C8.1298 20.2997 8.5898 21.9997 9.4498 23.4997L8.0498 28.6397L13.2998 27.2597C14.7498 28.0497 16.3798 28.4697 18.0398 28.4697C23.4998 28.4697 27.9498 24.0197 27.9498 18.5597C27.9498 15.9097 26.9198 13.4197 25.0498 11.5497ZM18.0398 26.7897C16.5598 26.7897 15.1098 26.3897 13.8398 25.6397L13.5398 25.4597L10.4198 26.2797L11.2498 23.2397L11.0498 22.9297C10.2274 21.6168 9.79073 20.099 9.7898 18.5497C9.7898 14.0097 13.4898 10.3097 18.0298 10.3097C20.2298 10.3097 22.2998 11.1697 23.8498 12.7297C24.6174 13.4936 25.2257 14.4022 25.6394 15.403C26.0531 16.4038 26.264 17.4768 26.2598 18.5597C26.2798 23.0997 22.5798 26.7897 18.0398 26.7897ZM22.5598 20.6297C22.3098 20.5097 21.0898 19.9097 20.8698 19.8197C20.6398 19.7397 20.4798 19.6997 20.3098 19.9397C20.1398 20.1897 19.6698 20.7497 19.5298 20.9097C19.3898 21.0797 19.2398 21.0997 18.9898 20.9697C18.7398 20.8497 17.9398 20.5797 16.9998 19.7397C16.2598 19.0797 15.7698 18.2697 15.6198 18.0197C15.4798 17.7697 15.5998 17.6397 15.7298 17.5097C15.8398 17.3997 15.9798 17.2197 16.0998 17.0797C16.2198 16.9397 16.2698 16.8297 16.3498 16.6697C16.4298 16.4997 16.3898 16.3597 16.3298 16.2397C16.2698 16.1197 15.7698 14.8997 15.5698 14.3997C15.3698 13.9197 15.1598 13.9797 15.0098 13.9697H14.5298C14.3598 13.9697 14.0998 14.0297 13.8698 14.2797C13.6498 14.5297 13.0098 15.1297 13.0098 16.3497C13.0098 17.5697 13.8998 18.7497 14.0198 18.9097C14.1398 19.0797 15.7698 21.5797 18.2498 22.6497C18.8398 22.9097 19.2998 23.0597 19.6598 23.1697C20.2498 23.3597 20.7898 23.3297 21.2198 23.2697C21.6998 23.1997 22.6898 22.6697 22.8898 22.0897C23.0998 21.5097 23.0998 21.0197 23.0298 20.9097C22.9598 20.7997 22.8098 20.7497 22.5598 20.6297Z" fill="white"/>
</svg>
